<?xml version="1.0" encoding="UTF-8"?>
<!DOCTYPE svg PUBLIC "-//W3C//DTD SVG 1.1//EN" "http://www.w3.org/Graphics/SVG/1.1/DTD/svg11.dtd">
<!-- Creator: CorelDRAW X7 -->
<svg xmlns="http://www.w3.org/2000/svg" xml:space="preserve" width="1000px" height="1000px" version="1.1" style="shape-rendering:geometricPrecision; text-rendering:geometricPrecision; image-rendering:optimizeQuality; fill-rule:evenodd; clip-rule:evenodd"
viewBox="0 0 1000 1000"
 xmlns:xlink="http://www.w3.org/1999/xlink">
 <defs>
  <style type="text/css">
   <![CDATA[
    .fil0 {fill:#9F2B2C}
    .fil2 {fill:#E36D2D}
    .fil1 {fill:#FEFEFE}
   ]]>
  </style>
 </defs>
 <g id="Layer_x0020_1">
  <metadata id="CorelCorpID_0Corel-Layer"/>
  <g id="_2138237941952">
   <circle class="fil0" cx="495" cy="498" r="493"/>
   <path class="fil1" d="M357 493c14,0 36,1 50,-2 113,-23 216,-66 292,-72 51,-1 77,4 126,23 1,-120 0,-112 1,-121 -9,-3 -35,13 -86,21 -26,4 -50,4 -73,1 -97,-11 -152,-51 -234,-66 -31,-4 -55,-6 -80,0 -74,17 -112,41 -153,65l1 6c12,21 13,27 0,50 0,3 0,6 0,9 44,47 82,72 156,86z"/>
   <path class="fil1" d="M314 621c-51,0 -77,5 -125,24 -1,-121 -1,-113 -1,-122 8,-3 35,14 85,22 27,3 51,3 73,0 176,-18 245,-142 477,3 -38,18 -24,39 -11,52 4,4 5,4 0,9 -201,187 -349,24 -498,12z"/>
   <path class="fil2" d="M161 711c24,-13 36,-21 36,-55 32,-20 107,-42 127,-39 91,-5 187,28 241,46 82,20 246,13 278,-73 4,-9 1,-14 1,-14 0,0 -51,45 -119,56 -68,11 -50,10 -123,2 -73,-8 -125,-41 -197,-48 -98,-9 -141,1 -258,60 25,21 32,26 14,65zm157 -181c222,13 284,-118 501,-17 -12,32 20,56 34,55 -36,-43 14,-50 12,-65 -33,-28 -141,-64 -211,-62 -70,3 -101,12 -237,51 -103,23 -216,-30 -246,-54 -14,-15 -11,68 147,92zm-159 -104c24,-12 36,-20 36,-55 32,-19 107,-42 127,-39 91,-5 187,28 241,46 82,20 246,13 278,-73 4,-9 1,-14 1,-14 0,0 -51,46 -119,57 -68,10 -50,9 -123,2 -73,-8 -125,-42 -197,-49 -98,-9 -141,1 -258,60 25,21 32,26 14,65z"/>
  </g>
 </g>
</svg>
